<svg width="42" height="42" viewBox="0 0 42 42" fill="none" xmlns="http://www.w3.org/2000/svg">
<g clip-path="url(#clip0_184_1536)">
<path d="M20.3286 9.13885C26.1855 8.61443 30.3278 14.8602 27.5231 20.0631C24.736 25.2306 17.1998 25.207 14.454 20.016C11.9793 15.3434 15.0845 9.61023 20.3286 9.13885Z" fill="#EBEBEB"/>
<path d="M21 0C9.40404 0 0 9.40404 0 21C0 32.596 9.40404 42 21 42C32.596 42 42 32.596 42 21C42 9.40404 32.596 0 21 0ZM34.3872 33.0968C34.0631 31.8123 33.4386 30.5572 32.6254 29.5556C31.1229 27.7231 28.8897 26.5505 26.521 26.303C22.8973 26.5152 18.9377 26.0084 15.3552 26.3266C12.6625 26.5623 10.0816 28.2769 8.68519 30.5513C8.20202 31.335 7.83081 32.2071 7.6069 33.0909C4.7138 29.8855 2.94613 25.649 2.94613 21C2.94613 11.048 11.0421 2.94613 21 2.94613C30.9579 2.94613 39.0539 11.0421 39.0539 21C39.0539 25.649 37.2862 29.8914 34.3872 33.0968Z" fill="#EBEBEB"/>
</g>
<defs>
<clipPath id="clip0_184_1536">
<rect width="42" height="42" fill="white"/>
</clipPath>
</defs>
</svg>
