<svg width="57" height="56" viewBox="0 0 57 56" fill="none" xmlns="http://www.w3.org/2000/svg">
<path d="M51.7631 0H4.35944C1.95179 0 0 1.94753 0 4.34993V51.6501C0 54.0525 1.95179 56 4.35944 56H51.7631C54.1707 56 56.1225 54.0525 56.1225 51.6501V4.34993C56.1225 1.94753 54.1707 0 51.7631 0Z" fill="#092079"/>
<path d="M37.8342 18.5775V41.4487C35.4969 35.4892 32.8445 29.6518 29.9382 24.0771C26.7733 18.0051 23.5848 13.1014 20.4622 9.49759L20.2741 9.28174H11.748V37.338H17.8757V37.3568C17.8663 36.6717 17.7299 21.5713 17.4619 16.5082C20.0672 20.4311 22.6631 24.9124 25.1932 29.8442C27.9161 35.1607 30.4414 40.6932 32.6988 46.2913L32.8587 46.6855H44.3663V18.5822H37.8295L37.8342 18.5775Z" fill="white"/>
<path d="M42.7958 10.5581V13.9367H39.4098V10.5581H42.7958ZM44.3806 8.97205H37.8203V15.518H44.3806V8.97205Z" fill="white"/>
<path d="M16.3142 42.1197V45.0994H13.328V42.1197H16.3142ZM17.8991 40.5383H11.7432V46.6808H17.8991V40.5383Z" fill="white"/>
</svg>
