<?xml version="1.0" encoding="UTF-8"?>
<svg id="Layer_2" data-name="Layer 2" xmlns="http://www.w3.org/2000/svg" viewBox="0 0 495.08 252.73">
  <defs>
    <style>
      .cls-1 {
        fill: #10306d;
      }

      .cls-2 {
        fill: #fff;
      }
    </style>
  </defs>
  <g id="Layer_1-2" data-name="Layer 1">
    <g>
      <g>
        <path class="cls-1" d="M40.9,246.46h-.13c-3.85-10.08-8.28-19.96-13.17-29.35-4.94-9.51-9.92-17.19-14.8-22.82l-.15-.17H0v57.81h8.63v-13.49c0-16.9-.24-28.51-.71-34.54l.3-.17c4.32,6.41,8.63,13.81,12.81,22,4.28,8.37,8.24,17.08,11.79,25.89l.13.31h17.23v-57.65h-9.28v52.18Z"/>
        <path class="cls-1" d="M94.52,205.29c-3.66-2.04-8.04-3.07-13.03-3.07-5.85,0-10.8,1.11-14.73,3.31-3.94,2.2-6.9,5.25-8.81,9.06-1.89,3.79-2.85,8.12-2.85,12.88s.96,9.1,2.85,12.88,4.87,6.86,8.81,9.06c3.93,2.2,8.88,3.31,14.73,3.31,11.57,0,19.67-4.57,24.07-13.59l.25-.5-8.96-3.2-.16.48c-.88,2.58-2.65,4.7-5.27,6.31-2.64,1.62-6.06,2.44-10.17,2.44-5.15,0-9.25-1.42-12.2-4.21-2.82-2.67-4.49-6.05-4.94-10.05h41.7l.04-.46c.06-.62.08-1.53.08-2.72,0-5.03-.99-9.48-2.94-13.22-1.96-3.75-4.81-6.69-8.48-8.73ZM69.12,213.94c2.84-2.42,6.87-3.65,11.97-3.65s9.05,1.31,11.92,3.89c2.74,2.47,4.29,5.79,4.59,9.88h-33.33c.5-4.39,2.12-7.79,4.84-10.12Z"/>
        <polygon class="cls-1" points="136.31 245.62 120.15 203.04 109.39 203.04 129.73 251.61 129.86 251.92 142.69 251.92 163.16 203.04 152.32 203.04 136.31 245.62"/>
        <path class="cls-1" d="M205.7,205.29c-3.66-2.04-8.04-3.07-13.03-3.07-5.85,0-10.8,1.11-14.73,3.31-3.94,2.2-6.9,5.25-8.81,9.06-1.89,3.79-2.85,8.12-2.85,12.88s.96,9.1,2.85,12.88,4.87,6.86,8.81,9.06c3.93,2.2,8.88,3.31,14.73,3.31,11.57,0,19.67-4.57,24.07-13.59l.25-.5-8.96-3.2-.16.48c-.88,2.58-2.65,4.7-5.27,6.31-2.64,1.62-6.06,2.44-10.17,2.44-5.15,0-9.25-1.42-12.2-4.21-2.82-2.67-4.49-6.05-4.94-10.05h41.7l.04-.46c.06-.62.08-1.53.08-2.72,0-5.03-.99-9.48-2.94-13.22-1.96-3.75-4.81-6.69-8.48-8.73ZM180.3,213.94c2.84-2.42,6.87-3.65,11.97-3.65s9.05,1.31,11.92,3.89c2.74,2.47,4.29,5.79,4.59,9.88h-33.33c.5-4.39,2.12-7.79,4.84-10.12Z"/>
        <path class="cls-1" d="M263.93,202.23c-3.47,0-6.56.67-9.19,2-2.62,1.32-4.69,2.9-6.17,4.67-1.34,1.62-2.12,3-2.36,4.2h-.29v-10.06h-23.16v8.3h13.88v32.28h-12.82v8.3h35.17v-8.3h-13.07v-18.25c0-2.81.78-5.38,2.31-7.63,1.54-2.27,3.63-4.07,6.22-5.35,2.6-1.29,5.38-1.94,8.26-1.94,2.15,0,4.19.31,6.05.91,1.83.59,3.28,1.41,4.31,2.43l.85.85v-9.41l-.2-.15c-2.57-1.9-5.86-2.86-9.79-2.86Z"/>
        <polygon class="cls-1" points="309.96 190.86 280.88 190.86 280.88 199.17 300.69 199.17 300.69 243.62 279.26 243.62 279.26 251.92 329.6 251.92 329.6 243.62 309.96 243.62 309.96 190.86"/>
        <path class="cls-1" d="M373.41,205.53c-3.95-2.2-8.92-3.31-14.77-3.31s-10.82,1.11-14.77,3.31c-3.97,2.21-6.94,5.25-8.85,9.06s-2.85,8.12-2.85,12.88.96,9.1,2.85,12.88c1.9,3.81,4.88,6.86,8.85,9.06,3.95,2.2,8.92,3.31,14.77,3.31s10.82-1.11,14.77-3.31c3.97-2.2,6.94-5.25,8.85-9.06,1.89-3.79,2.85-8.12,2.85-12.88s-.96-9.1-2.85-12.88c-1.9-3.81-4.88-6.85-8.85-9.06ZM358.64,210.29c6.15,0,10.65,1.57,13.38,4.66,2.75,3.11,4.16,7.33,4.22,12.53,0,5.36-1.44,9.6-4.29,12.6-2.84,2.99-7.35,4.54-13.39,4.59-5.99-.05-10.46-1.67-13.27-4.82-2.82-3.16-4.25-7.33-4.25-12.37s1.39-9.42,4.14-12.53c2.73-3.09,7.26-4.66,13.46-4.66Z"/>
        <path class="cls-1" d="M436.05,232.73c-2.4-1.88-5.21-3.5-8.35-4.82-3.11-1.3-7.45-2.94-12.88-4.88-5.31-1.98-9.2-3.6-11.55-4.81-2.19-1.12-3.3-2.35-3.3-3.65,0-1.5,1.03-2.57,3.15-3.26,2.27-.74,5.35-1.11,9.18-1.11,4.21,0,7.86.44,10.86,1.32,2.85.83,4.44,1.95,4.72,3.31l.08.4h9.53l-.02-.52c-.17-4.36-2.62-7.58-7.28-9.57-4.54-1.94-10.42-2.92-17.48-2.92-6.64,0-12.08.99-16.16,2.93-4.2,2-6.33,5.09-6.33,9.18,0,2.71.85,5.04,2.52,6.91,1.63,1.83,3.71,3.34,6.17,4.5,2.41,1.14,5.63,2.43,9.58,3.83l5.68,2.11c5.43,1.99,9.52,3.65,12.17,4.93,2.43,1.18,3.7,2.34,3.65,3.36,0,3.33-4.64,5.02-13.78,5.02-4.21,0-8.19-.54-11.83-1.6-3.52-1.03-5.61-2.47-6.2-4.3l-.11-.34-9.52-.09.06.56c.51,4.67,3.43,8.13,8.71,10.31,5.15,2.13,11.78,3.2,19.71,3.2,6.87,0,12.42-1.06,16.5-3.14,4.19-2.14,6.32-5.57,6.32-10.18,0-2.48-1.27-4.73-3.76-6.68Z"/>
        <path class="cls-1" d="M492.14,214.02c-1.96-3.75-4.81-6.69-8.48-8.73-3.66-2.04-8.04-3.07-13.03-3.07-5.85,0-10.8,1.11-14.73,3.31-3.94,2.21-6.9,5.25-8.81,9.06-1.89,3.79-2.85,8.12-2.85,12.88s.96,9.1,2.85,12.88c1.9,3.81,4.87,6.86,8.81,9.06,3.93,2.2,8.88,3.31,14.73,3.31,11.57,0,19.67-4.57,24.07-13.59l.25-.5-8.96-3.2-.16.48c-.88,2.58-2.65,4.7-5.27,6.31-2.64,1.62-6.06,2.44-10.17,2.44-5.15,0-9.25-1.42-12.2-4.21-2.82-2.67-4.49-6.05-4.94-10.05h41.7l.04-.46c.06-.61.08-1.53.08-2.72,0-5.03-.99-9.48-2.94-13.22ZM458.26,213.94c2.84-2.42,6.87-3.65,11.97-3.65s9.05,1.31,11.92,3.89c2.74,2.47,4.29,5.79,4.59,9.88h-33.33c.5-4.39,2.12-7.79,4.84-10.12Z"/>
      </g>
      <g>
        <rect class="cls-1" x="165.86" width="157.54" height="157.54" rx="9.27" ry="9.27"/>
        <g>
          <path class="cls-2" d="M271.66,52.63v63.41c-6.47-16.53-13.8-32.71-21.84-48.16-8.75-16.84-17.57-30.44-26.21-40.42l-.52-.6h-23.58v77.78h16.95v.05c-.03-1.9-.4-43.76-1.14-57.8,7.21,10.87,14.39,23.3,21.39,36.97,7.53,14.74,14.52,30.08,20.76,45.59l.44,1.09h31.83V52.63h-18.08Z"/>
          <path class="cls-2" d="M285.38,30.4v9.37h-9.37v-9.37h9.37M289.77,26.01h-18.14v18.14h18.14v-18.14h0Z"/>
          <path class="cls-2" d="M212.12,117.91v8.26h-8.26v-8.26h8.26M216.51,113.52h-17.03v17.03h17.03v-17.03h0Z"/>
        </g>
      </g>
    </g>
  </g>
</svg>