<svg width="496" height="253" viewBox="0 0 496 253" fill="none" xmlns="http://www.w3.org/2000/svg">
<g clip-path="url(#clip0_102_889)">
<path d="M40.9 246.46H40.77C36.92 236.38 32.49 226.5 27.6 217.11C22.66 207.6 17.68 199.92 12.8 194.29L12.65 194.12H0V251.93H8.63V238.44C8.63 221.54 8.39 209.93 7.92 203.9L8.22 203.73C12.54 210.14 16.85 217.54 21.03 225.73C25.31 234.1 29.27 242.81 32.82 251.62L32.95 251.93H50.18V194.28H40.9V246.46Z" fill="#092079"/>
<path d="M94.52 205.29C90.86 203.25 86.48 202.22 81.49 202.22C75.64 202.22 70.69 203.33 66.76 205.53C62.82 207.73 59.86 210.78 57.95 214.59C56.06 218.38 55.1 222.71 55.1 227.47C55.1 232.23 56.06 236.57 57.95 240.35C59.84 244.13 62.82 247.21 66.76 249.41C70.69 251.61 75.64 252.72 81.49 252.72C93.06 252.72 101.16 248.15 105.56 239.13L105.81 238.63L96.85 235.43L96.69 235.91C95.81 238.49 94.04 240.61 91.42 242.22C88.78 243.84 85.36 244.66 81.25 244.66C76.1 244.66 72 243.24 69.05 240.45C66.23 237.78 64.56 234.4 64.11 230.4H105.81L105.85 229.94C105.91 229.32 105.93 228.41 105.93 227.22C105.93 222.19 104.94 217.74 102.99 214C101.03 210.25 98.18 207.31 94.51 205.27L94.52 205.29ZM69.12 213.94C71.96 211.52 75.99 210.29 81.09 210.29C86.19 210.29 90.14 211.6 93.01 214.18C95.75 216.65 97.3 219.97 97.6 224.06H64.27C64.77 219.67 66.39 216.27 69.11 213.94H69.12Z" fill="#092079"/>
<path d="M136.31 245.62L120.15 203.04H109.39L129.73 251.61L129.86 251.92H142.69L163.16 203.04H152.32L136.31 245.62Z" fill="#092079"/>
<path d="M205.7 205.29C202.04 203.25 197.66 202.22 192.67 202.22C186.82 202.22 181.87 203.33 177.94 205.53C174 207.73 171.04 210.78 169.13 214.59C167.24 218.38 166.28 222.71 166.28 227.47C166.28 232.23 167.24 236.57 169.13 240.35C171.02 244.13 174 247.21 177.94 249.41C181.87 251.61 186.82 252.72 192.67 252.72C204.24 252.72 212.34 248.15 216.74 239.13L216.99 238.63L208.03 235.43L207.87 235.91C206.99 238.49 205.22 240.61 202.6 242.22C199.96 243.84 196.54 244.66 192.43 244.66C187.28 244.66 183.18 243.24 180.23 240.45C177.41 237.78 175.74 234.4 175.29 230.4H216.99L217.03 229.94C217.09 229.32 217.11 228.41 217.11 227.22C217.11 222.19 216.12 217.74 214.17 214C212.21 210.25 209.36 207.31 205.69 205.27L205.7 205.29ZM180.3 213.94C183.14 211.52 187.17 210.29 192.27 210.29C197.37 210.29 201.32 211.6 204.19 214.18C206.93 216.65 208.48 219.97 208.78 224.06H175.45C175.95 219.67 177.57 216.27 180.29 213.94H180.3Z" fill="#092079"/>
<path d="M263.93 202.23C260.46 202.23 257.37 202.9 254.74 204.23C252.12 205.55 250.05 207.13 248.57 208.9C247.23 210.52 246.45 211.9 246.21 213.1H245.92V203.04H222.76V211.34H236.64V243.62H223.82V251.92H258.99V243.62H245.92V225.37C245.92 222.56 246.7 219.99 248.23 217.74C249.77 215.47 251.86 213.67 254.45 212.39C257.05 211.1 259.83 210.45 262.71 210.45C264.86 210.45 266.9 210.76 268.76 211.36C270.59 211.95 272.04 212.77 273.07 213.79L273.92 214.64V205.23L273.72 205.08C271.15 203.18 267.86 202.22 263.93 202.22V202.23Z" fill="#092079"/>
<path d="M309.96 190.86H280.88V199.17H300.69V243.62H279.26V251.92H329.6V243.62H309.96V190.86Z" fill="#092079"/>
<path d="M373.41 205.53C369.46 203.33 364.49 202.22 358.64 202.22C352.79 202.22 347.82 203.33 343.87 205.53C339.9 207.74 336.93 210.78 335.02 214.59C333.11 218.4 332.17 222.71 332.17 227.47C332.17 232.23 333.13 236.57 335.02 240.35C336.92 244.16 339.9 247.21 343.87 249.41C347.82 251.61 352.79 252.72 358.64 252.72C364.49 252.72 369.46 251.61 373.41 249.41C377.38 247.21 380.35 244.16 382.26 240.35C384.15 236.56 385.11 232.23 385.11 227.47C385.11 222.71 384.15 218.37 382.26 214.59C380.36 210.78 377.38 207.74 373.41 205.53ZM358.64 210.29C364.79 210.29 369.29 211.86 372.02 214.95C374.77 218.06 376.18 222.28 376.24 227.48C376.24 232.84 374.8 237.08 371.95 240.08C369.11 243.07 364.6 244.62 358.56 244.67C352.57 244.62 348.1 243 345.29 239.85C342.47 236.69 341.04 232.52 341.04 227.48C341.04 222.44 342.43 218.06 345.18 214.95C347.91 211.86 352.44 210.29 358.64 210.29Z" fill="#092079"/>
<path d="M436.05 232.73C433.65 230.85 430.84 229.23 427.7 227.91C424.59 226.61 420.25 224.97 414.82 223.03C409.51 221.05 405.62 219.43 403.27 218.22C401.08 217.1 399.97 215.87 399.97 214.57C399.97 213.07 401 212 403.12 211.31C405.39 210.57 408.47 210.2 412.3 210.2C416.51 210.2 420.16 210.64 423.16 211.52C426.01 212.35 427.6 213.47 427.88 214.83L427.96 215.23H437.49L437.47 214.71C437.3 210.35 434.85 207.13 430.19 205.14C425.65 203.2 419.77 202.22 412.71 202.22C406.07 202.22 400.63 203.21 396.55 205.15C392.35 207.15 390.22 210.24 390.22 214.33C390.22 217.04 391.07 219.37 392.74 221.24C394.37 223.07 396.45 224.58 398.91 225.74C401.32 226.88 404.54 228.17 408.49 229.57L414.17 231.68C419.6 233.67 423.69 235.33 426.34 236.61C428.77 237.79 430.04 238.95 429.99 239.97C429.99 243.3 425.35 244.99 416.21 244.99C412 244.99 408.02 244.45 404.38 243.39C400.86 242.36 398.77 240.92 398.18 239.09L398.07 238.75L388.55 238.66L388.61 239.22C389.12 243.89 392.04 247.35 397.32 249.53C402.47 251.66 409.1 252.73 417.03 252.73C423.9 252.73 429.45 251.67 433.53 249.59C437.72 247.45 439.85 244.02 439.85 239.41C439.85 236.93 438.58 234.68 436.09 232.73H436.05Z" fill="#092079"/>
<path d="M492.14 214.02C490.18 210.27 487.33 207.33 483.66 205.29C480 203.25 475.62 202.22 470.63 202.22C464.78 202.22 459.83 203.33 455.9 205.53C451.96 207.74 449 210.78 447.09 214.59C445.2 218.38 444.24 222.71 444.24 227.47C444.24 232.23 445.2 236.57 447.09 240.35C448.99 244.16 451.96 247.21 455.9 249.41C459.83 251.61 464.78 252.72 470.63 252.72C482.2 252.72 490.3 248.15 494.7 239.13L494.95 238.63L485.99 235.43L485.83 235.91C484.95 238.49 483.18 240.61 480.56 242.22C477.92 243.84 474.5 244.66 470.39 244.66C465.24 244.66 461.14 243.24 458.19 240.45C455.37 237.78 453.7 234.4 453.25 230.4H494.95L494.99 229.94C495.05 229.33 495.07 228.41 495.07 227.22C495.07 222.19 494.08 217.74 492.13 214L492.14 214.02ZM458.26 213.94C461.1 211.52 465.13 210.29 470.23 210.29C475.33 210.29 479.28 211.6 482.15 214.18C484.89 216.65 486.44 219.97 486.74 224.06H453.41C453.91 219.67 455.53 216.27 458.25 213.94H458.26Z" fill="#092079"/>
<path d="M314.13 0H175.13C170.01 0 165.86 4.15032 165.86 9.27V148.27C165.86 153.39 170.01 157.54 175.13 157.54H314.13C319.25 157.54 323.4 153.39 323.4 148.27V9.27C323.4 4.15032 319.25 0 314.13 0Z" fill="#092079"/>
<path d="M271.66 52.63V116.04C265.19 99.51 257.86 83.33 249.82 67.88C241.07 51.04 232.25 37.44 223.61 27.46L223.09 26.86H199.51V104.64H216.46V104.69C216.43 102.79 216.06 60.93 215.32 46.89C222.53 57.76 229.71 70.19 236.71 83.86C244.24 98.6 251.23 113.94 257.47 129.45L257.91 130.54H289.74V52.63H271.66Z" fill="white"/>
<path d="M285.38 30.4V39.77H276.01V30.4H285.38ZM289.77 26.01H271.63V44.15H289.77V26.01Z" fill="white"/>
<path d="M212.12 117.91V126.17H203.86V117.91H212.12ZM216.51 113.52H199.48V130.55H216.51V113.52Z" fill="white"/>
</g>
<defs>
<clipPath id="clip0_102_889">
<rect width="495.08" height="252.73" fill="white"/>
</clipPath>
</defs>
</svg>
