<svg width="660" height="120" viewBox="0 0 660 120" fill="none" xmlns="http://www.w3.org/2000/svg">
<g clip-path="url(#clip0_102_908)">
<path d="M110.07 0H9.27C4.15032 0 0 4.15032 0 9.27V110.07C0 115.19 4.15032 119.34 9.27 119.34H110.07C115.19 119.34 119.34 115.19 119.34 110.07V9.27C119.34 4.15032 115.19 0 110.07 0Z" fill="#092079"/>
<path d="M80.45 39.59V88.33C75.48 75.63 69.84 63.19 63.66 51.31C56.93 38.37 50.15 27.92 43.51 20.24L43.11 19.78H24.98V79.57H38.01V79.61C37.99 78.15 37.7 45.97 37.13 35.18C42.67 43.54 48.19 53.09 53.57 63.6C59.36 74.93 64.73 86.72 69.53 98.65L69.87 99.49H94.34V39.6H80.44L80.45 39.59Z" fill="white"/>
<path d="M90.9999 22.5001V29.7001H83.7999V22.5001H90.9999ZM94.3699 19.1201H80.4199V33.0701H94.3699V19.1201Z" fill="white"/>
<path d="M34.69 89.7601V96.1101H28.34V89.7601H34.69ZM38.06 86.3901H24.97V99.4801H38.06V86.3901Z" fill="white"/>
<path d="M175.41 78.5447H175.31C172.364 70.8302 168.973 63.2687 165.231 56.0823C161.45 48.804 157.639 42.9262 153.904 38.6174L153.789 38.4873H144.1V82.7311H150.705V72.4068C150.705 59.4727 150.521 50.5872 150.161 45.9722L150.391 45.8421C153.697 50.7479 156.996 56.4114 160.195 62.6794C163.471 69.0852 166.501 75.7513 169.218 82.4938L169.318 82.7311H182.504V38.6098H175.402V78.5447H175.41Z" fill="#092079"/>
<path d="M216.447 47.0439C213.646 45.4826 210.293 44.6943 206.474 44.6943C201.997 44.6943 198.209 45.5439 195.201 47.2276C192.186 48.9113 189.92 51.2456 188.459 54.1615C187.012 57.0621 186.277 60.376 186.277 64.0189C186.277 67.6619 187.012 70.9835 188.459 73.8764C189.905 76.7694 192.186 79.1266 195.201 80.8103C198.209 82.494 201.997 83.3435 206.474 83.3435C215.329 83.3435 221.528 79.846 224.896 72.9427L225.087 72.56L218.23 70.111L218.107 70.4783C217.434 72.4529 216.079 74.0754 214.074 75.3076C212.054 76.5474 209.436 77.175 206.291 77.175C202.349 77.175 199.211 76.0882 196.954 73.9529C194.795 71.9095 193.517 69.3227 193.173 66.2614H225.087L225.118 65.9093C225.164 65.4348 225.179 64.7384 225.179 63.8276C225.179 59.978 224.421 56.5723 222.929 53.7099C221.429 50.8399 219.248 48.5899 216.439 47.0286L216.447 47.0439ZM197.007 53.6564C199.181 51.8043 202.265 50.8629 206.168 50.8629C210.071 50.8629 213.095 51.8655 215.291 53.84C217.388 55.7304 218.574 58.2713 218.804 61.4015H193.295C193.678 58.0417 194.918 55.4396 197 53.6564H197.007Z" fill="#092079"/>
<path d="M248.43 77.9094L236.062 45.314H227.827L243.394 82.4937L243.493 82.7233H253.313L268.979 45.314H260.683L248.43 77.9094Z" fill="#092079"/>
<path d="M301.536 47.0439C298.735 45.4826 295.383 44.6943 291.564 44.6943C287.087 44.6943 283.298 45.5439 280.291 47.2276C277.275 48.9113 275.01 51.2456 273.548 54.1615C272.102 57.0621 271.367 60.376 271.367 64.0189C271.367 67.6619 272.102 70.9835 273.548 73.8764C274.995 76.7694 277.275 79.1266 280.291 80.8103C283.298 82.494 287.087 83.3435 291.564 83.3435C300.419 83.3435 306.618 79.846 309.985 72.9427L310.177 72.56L303.319 70.111L303.197 70.4783C302.524 72.4529 301.169 74.0754 299.164 75.3076C297.143 76.5474 294.526 77.175 291.38 77.175C287.439 77.175 284.301 76.0882 282.043 73.9529C279.885 71.9095 278.607 69.3227 278.262 66.2614H310.177L310.207 65.9093C310.253 65.4348 310.269 64.7384 310.269 63.8276C310.269 59.978 309.511 56.5723 308.019 53.7099C306.519 50.8399 304.337 48.5899 301.529 47.0286L301.536 47.0439ZM282.097 53.6564C284.27 51.8043 287.355 50.8629 291.258 50.8629C295.161 50.8629 298.184 51.8655 300.381 53.84C302.478 55.7304 303.664 58.2713 303.893 61.4015H278.385C278.768 58.0417 280.007 55.4396 282.089 53.6564H282.097Z" fill="#092079"/>
<path d="M346.101 44.6942C343.446 44.6942 341.081 45.2069 339.068 46.2248C337.063 47.2351 335.479 48.4443 334.346 49.7989C333.32 51.0388 332.723 52.0949 332.54 53.0133H332.318V45.3141H314.593V51.6663H325.216V76.3712H315.404V82.7235H342.321V76.3712H332.318V62.4039C332.318 60.2534 332.915 58.2865 334.086 56.5645C335.264 54.8272 336.864 53.4496 338.846 52.4699C340.836 51.4827 342.964 50.9852 345.168 50.9852C346.813 50.9852 348.374 51.2224 349.798 51.6816C351.199 52.1332 352.308 52.7608 353.097 53.5414L353.747 54.1919V46.9902L353.594 46.8754C351.627 45.4212 349.109 44.6865 346.101 44.6865V44.6942Z" fill="#092079"/>
<path d="M381.33 36H359.074V42.3522H374.235V76.3712H357.834V82.7235H396.361V76.3712H381.33V36Z" fill="#092079"/>
<path d="M429.89 47.2276C426.867 45.5439 423.063 44.6943 418.586 44.6943C414.109 44.6943 410.305 45.5439 407.282 47.2276C404.244 48.919 401.971 51.2456 400.509 54.1615C399.047 57.0774 398.328 60.376 398.328 64.0189C398.328 67.6619 399.062 70.9835 400.509 73.8764C401.963 76.7923 404.244 79.1266 407.282 80.8103C410.305 82.494 414.109 83.3435 418.586 83.3435C423.063 83.3435 426.867 82.494 429.89 80.8103C432.928 79.1266 435.201 76.7923 436.663 73.8764C438.109 70.9758 438.844 67.6619 438.844 64.0189C438.844 60.376 438.109 57.0544 436.663 54.1615C435.209 51.2456 432.928 48.919 429.89 47.2276ZM418.586 50.8629C423.293 50.8629 426.737 52.0645 428.826 54.4293C430.931 56.8095 432.01 60.0392 432.056 64.0189C432.056 68.1211 430.954 71.3661 428.772 73.6621C426.599 75.9504 423.147 77.1367 418.525 77.175C413.94 77.1367 410.519 75.8969 408.369 73.4861C406.21 71.0676 405.116 67.8762 405.116 64.0189C405.116 60.1617 406.18 56.8095 408.285 54.4293C410.374 52.0645 413.841 50.8629 418.586 50.8629Z" fill="#092079"/>
<path d="M477.83 68.0368C475.993 66.5979 473.843 65.3581 471.44 64.3479C469.059 63.3529 465.738 62.0978 461.582 60.6131C457.518 59.0977 454.541 57.8579 452.743 56.9318C451.067 56.0746 450.217 55.1333 450.217 54.1384C450.217 52.9904 451.005 52.1715 452.628 51.6434C454.365 51.077 456.722 50.7939 459.654 50.7939C462.876 50.7939 465.669 51.1306 467.965 51.8041C470.146 52.4393 471.363 53.2965 471.577 54.3373L471.639 54.6435H478.932L478.917 54.2455C478.787 50.9087 476.912 48.4443 473.345 46.9213C469.871 45.4365 465.371 44.6865 459.967 44.6865C454.886 44.6865 450.722 45.4442 447.6 46.9289C444.385 48.4596 442.755 50.8245 442.755 53.9547C442.755 56.0287 443.406 57.8119 444.684 59.2431C445.931 60.6437 447.523 61.7993 449.406 62.6871C451.25 63.5596 453.715 64.5469 456.738 65.6183L461.085 67.2332C465.24 68.7562 468.371 70.0266 470.399 71.0063C472.259 71.9093 473.231 72.7971 473.192 73.5778C473.192 76.1263 469.641 77.4197 462.646 77.4197C459.424 77.4197 456.378 77.0064 453.592 76.1952C450.898 75.4069 449.299 74.3048 448.847 72.9043L448.763 72.6441L441.477 72.5752L441.523 73.0038C441.913 76.5779 444.148 79.2259 448.189 80.8943C452.13 82.5245 457.205 83.3434 463.274 83.3434C468.531 83.3434 472.779 82.5321 475.902 80.9402C479.108 79.3024 480.738 76.6774 480.738 73.1492C480.738 71.2512 479.766 69.5292 477.861 68.0368H477.83Z" fill="#092079"/>
<path d="M520.758 53.7174C519.258 50.8474 517.076 48.5974 514.268 47.0361C511.467 45.4748 508.114 44.6865 504.295 44.6865C499.818 44.6865 496.03 45.536 493.022 47.2198C490.007 48.9112 487.741 51.2378 486.279 54.1537C484.833 57.0543 484.098 60.3682 484.098 64.0111C484.098 67.6541 484.833 70.9756 486.279 73.8686C487.734 76.7845 490.007 79.1188 493.022 80.8025C496.03 82.4862 499.818 83.3357 504.295 83.3357C513.15 83.3357 519.349 79.8382 522.717 72.9349L522.908 72.5522L516.051 70.1032L515.928 70.4705C515.255 72.4451 513.9 74.0676 511.895 75.2998C509.875 76.5396 507.257 77.1672 504.112 77.1672C500.17 77.1672 497.032 76.0804 494.775 73.9451C492.616 71.9017 491.338 69.3149 490.994 66.2535H522.908L522.939 65.9015C522.985 65.4346 523 64.7305 523 63.8198C523 59.9702 522.242 56.5645 520.75 53.7021L520.758 53.7174ZM494.828 53.6562C497.002 51.8041 500.086 50.8627 503.989 50.8627C507.892 50.8627 510.915 51.8653 513.112 53.8399C515.209 55.7302 516.395 58.2711 516.625 61.4014H491.116C491.499 58.0415 492.739 55.4394 494.821 53.6562H494.828Z" fill="#092079"/>
</g>
<defs>
<clipPath id="clip0_102_908">
<rect width="659.19" height="119.34" fill="white"/>
</clipPath>
</defs>
</svg>
